<svg width="30" height="20" viewBox="0 0 30 20" fill="none" xmlns="http://www.w3.org/2000/svg">
<g filter="url(#filter0_d_4046_24)">
<path d="M10.2174 8.5C10.2174 9.88071 11.3853 11 12.8261 11C14.2668 11 15.4348 9.88071 15.4348 8.5C15.4348 7.11929 14.2668 6 12.8261 6C11.3853 6 10.2174 7.11929 10.2174 8.5ZM10.2174 8.5V3.5C10.2174 2.83696 10.4922 2.20107 10.9815 1.73223C11.4707 1.26339 12.1342 1 12.8261 1H14.5652M5 11C5 11 5 4.90524 5 1M19.7826 6H22.3913M25 6H22.3913M22.3913 3.5V6M22.3913 8.5V6" stroke="white" stroke-width="2" stroke-linecap="round" stroke-linejoin="round" shape-rendering="crispEdges"/>
</g>
<defs>
<filter id="filter0_d_4046_24" x="0" y="0" width="30" height="20" filterUnits="userSpaceOnUse" color-interpolation-filters="sRGB">
<feFlood flood-opacity="0" result="BackgroundImageFix"/>
<feColorMatrix in="SourceAlpha" type="matrix" values="0 0 0 0 0 0 0 0 0 0 0 0 0 0 0 0 0 0 127 0" result="hardAlpha"/>
<feOffset dy="4"/>
<feGaussianBlur stdDeviation="2"/>
<feComposite in2="hardAlpha" operator="out"/>
<feColorMatrix type="matrix" values="0 0 0 0 0 0 0 0 0 0 0 0 0 0 0 0 0 0 0.25 0"/>
<feBlend mode="normal" in2="BackgroundImageFix" result="effect1_dropShadow_4046_24"/>
<feBlend mode="normal" in="SourceGraphic" in2="effect1_dropShadow_4046_24" result="shape"/>
</filter>
</defs>
</svg>
