<svg width="1148" height="95" viewBox="0 0 1148 95" fill="none" xmlns="http://www.w3.org/2000/svg">
<g clip-path="url(#clip0_4013_172)">
<path fill-rule="evenodd" clip-rule="evenodd" d="M-491 10C-491 4.47715 -486.523 0 -481 0H1419C1424.52 0 1429 4.47715 1429 10V94.99C1429 94.9955 1429 95 1428.99 95V95C1428.98 95 1428.98 94.9957 1428.98 94.9903C1428.45 81.6513 1417.47 71 1404 71H1145.52C1140.46 71 1136.3 67.1673 1134.81 62.3261C1128.54 41.8723 1109.51 27 1087 27H60C37.492 27 18.4576 41.8723 12.1878 62.3261C10.7038 67.1673 6.54451 71 1.48097 71H-466C-479.469 71 -490.45 81.6513 -490.98 94.9903C-490.98 94.9957 -490.985 95 -490.99 95V95C-490.996 95 -491 94.9955 -491 94.99V10Z" fill="#7027E2"/>
</g>
<defs>
<clipPath id="clip0_4013_172">
<rect width="1148" height="95" fill="white"/>
</clipPath>
</defs>
</svg>
