<svg width="68" height="71" viewBox="0 0 68 71" fill="none" xmlns="http://www.w3.org/2000/svg">
<g clip-path="url(#clip0_4013_172)">
<path fill-rule="evenodd" clip-rule="evenodd" d="M-1574 10C-1574 4.47715 -1569.52 0 -1564 0H336C341.523 0 346 4.47715 346 10V94.99C346 94.9955 345.996 95 345.99 95V95C345.985 95 345.98 94.9957 345.98 94.9903C345.45 81.6513 334.469 71 321 71H62.519C57.4555 71 53.2962 67.1673 51.8122 62.3261C45.5424 41.8723 26.508 27 4 27H-1023C-1045.51 27 -1064.54 41.8723 -1070.81 62.3261C-1072.3 67.1673 -1076.46 71 -1081.52 71H-1549C-1562.47 71 -1573.45 81.6513 -1573.98 94.9903C-1573.98 94.9957 -1573.98 95 -1573.99 95V95C-1574 95 -1574 94.9955 -1574 94.99V10Z" fill="#7027E2"/>
</g>
<defs>
<clipPath id="clip0_4013_172">
<rect width="68" height="71" fill="white"/>
</clipPath>
</defs>
</svg>
